<svg width="21" height="20" viewBox="0 0 21 20" fill="none" xmlns="http://www.w3.org/2000/svg">
<path d="M2.5 12.3668C2.5 12.5326 2.56585 12.6915 2.68306 12.8088C2.80027 12.926 2.95924 12.9918 3.125 12.9918H15.3663L12.6838 15.6743C12.5699 15.7922 12.5069 15.9501 12.5083 16.1139C12.5098 16.2778 12.5755 16.4346 12.6914 16.5505C12.8072 16.6663 12.964 16.7321 13.1279 16.7335C13.2917 16.7349 13.4496 16.6719 13.5675 16.5581L17.3175 12.8081C17.3753 12.7506 17.4212 12.6822 17.4525 12.6069C17.4839 12.5316 17.5 12.4509 17.5 12.3693V12.3668C17.5 12.2856 17.4838 12.2043 17.4513 12.1281C17.4201 12.0523 17.3742 11.9835 17.3162 11.9256L13.5663 8.17557C13.4484 8.06172 13.2905 7.99872 13.1266 8.00015C12.9628 8.00157 12.806 8.0673 12.6901 8.18318C12.5742 8.29906 12.5085 8.45582 12.5071 8.61969C12.5057 8.78356 12.5687 8.94144 12.6825 9.05932L15.3663 11.7418H3.125C2.95924 11.7418 2.80027 11.8077 2.68306 11.9249C2.56585 12.0421 2.5 12.2011 2.5 12.3668Z" fill="white"/>
</svg>
