<svg width="28" height="24" viewBox="0 0 28 24" fill="none" xmlns="http://www.w3.org/2000/svg">
<g clip-path="url(#clip0_401_75)">
<path d="M16.2727 12.3301L15.2372 11.3888C15.3502 11.1775 15.4491 10.9604 15.5337 10.7383H16.9979C17.4791 10.7383 17.8693 10.3836 17.8693 9.94615V7.62396C17.8693 7.18655 17.4792 6.8318 16.9979 6.8318H15.5336C15.449 6.60974 15.3501 6.39269 15.2372 6.18138L16.2727 5.24004C16.6129 4.93071 16.6129 4.42913 16.2727 4.1198L14.4664 2.47778C14.1261 2.16853 13.5745 2.16853 13.2342 2.47778L12.1987 3.41911C11.9663 3.31649 11.7276 3.22647 11.4832 3.1497V1.81847C11.4832 1.38105 11.0931 1.02631 10.6119 1.02631H8.05747C7.57632 1.02631 7.18609 1.38097 7.18609 1.81847V3.1497C6.94183 3.22655 6.70307 3.31641 6.47063 3.41911L5.43525 2.47778C5.27187 2.32926 5.05018 2.24578 4.81907 2.24578C4.58796 2.24578 4.36636 2.32926 4.20289 2.47778L2.39658 4.1198C2.2332 4.26833 2.14138 4.46986 2.14138 4.67996C2.14138 4.89006 2.2332 5.09152 2.39658 5.24012L3.43205 6.18146C3.31916 6.39269 3.22014 6.60974 3.13569 6.83188H1.67143C1.19018 6.83188 0.800049 7.18655 0.800049 7.62396V9.94623C0.800049 10.3836 1.19018 10.7384 1.67143 10.7384H3.13569C3.22032 10.9604 3.31916 11.1775 3.43214 11.3889L2.39667 12.3301C2.0564 12.6395 2.0564 13.1411 2.39667 13.4504L4.20289 15.0924C4.54325 15.4016 5.0948 15.4017 5.43516 15.0924L6.47063 14.1511C6.70298 14.2538 6.94183 14.3438 7.18609 14.4206V15.7518C7.18609 16.1892 7.57623 16.544 8.05747 16.544H10.612C11.0931 16.544 11.4833 16.1893 11.4833 15.7518V14.4206C11.7275 14.3437 11.9664 14.2538 12.1988 14.1511L13.2343 15.0924C13.5746 15.4017 14.1262 15.4017 14.4665 15.0924L16.2728 13.4504C16.613 13.141 16.613 12.6394 16.2727 12.3301ZM14.0292 9.76901C13.9092 10.2441 13.7041 10.6943 13.4194 11.107C13.2037 11.4198 13.2545 11.8268 13.5417 12.0878L14.4243 12.8902L13.8504 13.4121L12.9676 12.6096C12.6803 12.3485 12.2329 12.3026 11.8888 12.4985C11.4345 12.7573 10.9394 12.9438 10.4171 13.0527C10.0212 13.1353 9.74067 13.4556 9.74067 13.8249V14.9596H8.92894V13.8249C8.92894 13.4556 8.64841 13.1354 8.25249 13.0527C7.73018 12.9438 7.23507 12.7573 6.78085 12.4985C6.43703 12.3027 5.98929 12.3484 5.702 12.6096L4.81925 13.4121L4.24529 12.8902L5.12796 12.0878C5.41516 11.8267 5.46583 11.4198 5.25018 11.107C4.96556 10.6943 4.7604 10.2441 4.6404 9.76901C4.54956 9.40917 4.19729 9.15414 3.79116 9.15414H2.54272V8.41621H3.79089C4.19694 8.41621 4.5492 8.16118 4.64014 7.80142C4.76023 7.32627 4.96529 6.87616 5.24992 6.46348C5.46574 6.15067 5.41498 5.74372 5.12778 5.48263L4.24503 4.68012L4.81907 4.15835L5.70174 4.96085C5.98894 5.22202 6.43667 5.26784 6.78067 5.07188C7.23472 4.81313 7.72983 4.62671 8.25223 4.5177C8.64814 4.43511 8.92867 4.11479 8.92867 3.74558V2.61063H9.74041V3.74542C9.74041 4.11463 10.0209 4.43487 10.4169 4.51754C10.9393 4.62655 11.4344 4.81297 11.8884 5.07172C12.2325 5.26784 12.6802 5.22194 12.9673 4.96069L13.8501 4.15819L14.4241 4.67996L13.5413 5.48247C13.2541 5.74364 13.2034 6.15051 13.4192 6.46332C13.7038 6.876 13.9088 7.32619 14.0289 7.80126C14.1198 8.16101 14.4721 8.41604 14.8782 8.41604H16.1264V9.15398H14.8782C14.4722 9.15406 14.1201 9.40909 14.0292 9.76901Z" fill="white" fill-opacity="0.87"/>
<path d="M9.33468 5.74115C7.48837 5.74115 5.98633 7.10664 5.98633 8.78511C5.98633 10.4636 7.48837 11.8291 9.33468 11.8291C11.181 11.8291 12.683 10.4636 12.683 8.78511C12.683 7.10664 11.1811 5.74115 9.33468 5.74115ZM9.33468 10.2448C8.44926 10.2448 7.72899 9.59004 7.72899 8.78511C7.72899 7.98018 8.44935 7.32539 9.33468 7.32539C10.22 7.32539 10.9404 7.98018 10.9404 8.78511C10.9404 9.59004 10.2201 10.2448 9.33468 10.2448Z" fill="white" fill-opacity="0.87"/>
<path d="M26.6293 17.8657C27.0079 17.8022 27.2582 17.4718 27.1883 17.1276L26.8595 15.5072C26.826 15.3419 26.7216 15.1955 26.5694 15.1002C26.4171 15.005 26.2293 14.9685 26.0476 14.999L25.0805 15.1611C25.0056 15.0441 24.9244 14.9304 24.8376 14.8203L25.3952 14.0841C25.5 13.9456 25.5401 13.775 25.5066 13.6097C25.4731 13.4444 25.3686 13.2981 25.2164 13.2028L23.7234 12.2683C23.4066 12.0699 22.9724 12.1425 22.754 12.4308L22.1964 13.1671C22.0523 13.1326 21.9066 13.1044 21.7596 13.0825L21.5812 12.2033C21.5113 11.8592 21.1474 11.6314 20.7692 11.6951L18.9868 11.9941C18.8049 12.0245 18.6439 12.1195 18.5391 12.2578C18.4343 12.3963 18.3942 12.5669 18.4277 12.7322L18.6061 13.6113C18.4773 13.6796 18.3523 13.7532 18.2312 13.8322L17.4213 13.3253C17.269 13.23 17.0813 13.1937 16.8996 13.224C16.7177 13.2545 16.5567 13.3494 16.4519 13.4879L15.424 14.8451C15.3191 14.9836 15.2791 15.1541 15.3126 15.3194C15.3461 15.4847 15.4506 15.6311 15.6028 15.7264L16.4127 16.2332C16.3747 16.3643 16.3436 16.4967 16.3196 16.6304L15.3524 16.7926C15.1706 16.8231 15.0096 16.918 14.9048 17.0564C14.7999 17.1949 14.7599 17.3654 14.7934 17.5307L15.1223 19.1511C15.1922 19.4953 15.5556 19.7232 15.9342 19.6593L16.9013 19.4972C16.9763 19.6142 17.0574 19.728 17.1443 19.838L16.5867 20.5742C16.4819 20.7127 16.4418 20.8832 16.4753 21.0485C16.5088 21.2139 16.6132 21.3602 16.7655 21.4555L18.2585 22.3899C18.5753 22.5883 19.0096 22.5157 19.2278 22.2274L19.7854 21.4912C19.9295 21.5257 20.0752 21.5539 20.2223 21.5759L20.4007 22.455C20.4627 22.7603 20.7557 22.9739 21.0854 22.9739C21.1274 22.9739 21.17 22.9705 21.2126 22.9633L22.9951 22.6644C23.177 22.6339 23.3379 22.5389 23.4427 22.4006C23.5475 22.2621 23.5876 22.0915 23.5541 21.9263L23.3757 21.0471C23.5045 20.9789 23.6296 20.9052 23.7507 20.8262L24.5604 21.3331C24.7128 21.4285 24.9003 21.4649 25.0822 21.4344C25.2641 21.4039 25.4251 21.309 25.5299 21.1705L26.5578 19.8133C26.7761 19.525 26.6961 19.1305 26.379 18.9321L25.5691 18.4251C25.6072 18.2941 25.6382 18.1617 25.6623 18.028L26.6293 17.8657ZM24.8973 16.8675C24.5777 16.9211 24.3412 17.1684 24.3274 17.4635C24.3114 17.8008 24.2339 18.131 24.097 18.445C23.9772 18.7196 24.082 19.033 24.3497 19.2005L25.0143 19.6166L24.777 19.93L24.1124 19.514C23.8446 19.3464 23.4852 19.3692 23.246 19.5689C22.9721 19.7972 22.6603 19.9809 22.3194 20.1149C22.0211 20.232 21.8514 20.5211 21.9103 20.8115L22.0567 21.5331L21.6452 21.6021L21.4988 20.8806C21.4399 20.5901 21.168 20.3751 20.8434 20.3625C20.472 20.3478 20.1087 20.2774 19.7634 20.153C19.6796 20.1229 19.5928 20.1084 19.5068 20.1084C19.2828 20.1084 19.0656 20.207 18.9324 20.3827L18.4748 20.9869L18.1301 20.7712L18.5877 20.1671C18.772 19.9238 18.7469 19.597 18.5273 19.3793C18.2762 19.1304 18.0741 18.847 17.9267 18.5368C17.7977 18.2657 17.479 18.1114 17.1604 18.1651L16.3667 18.2982L16.2907 17.9242L17.0844 17.7911C17.4041 17.7375 17.6405 17.4902 17.6544 17.1951C17.6704 16.8577 17.7479 16.5276 17.8848 16.2134C18.0045 15.9388 17.8996 15.6255 17.632 15.4579L16.9674 15.042L17.2047 14.7286L17.8693 15.1446C18.1372 15.3123 18.4964 15.2893 18.7358 15.0897C19.0097 14.8614 19.3214 14.6777 19.6626 14.5436C19.9607 14.4264 20.1304 14.1374 20.0715 13.847L19.9251 13.1254L20.3365 13.0564L20.4829 13.778C20.5419 14.0686 20.8139 14.2835 21.1385 14.2961C21.5096 14.3107 21.8728 14.3811 22.2182 14.5056C22.5205 14.6145 22.8651 14.5191 23.0492 14.2758L23.5069 13.6716L23.8516 13.8873L23.394 14.4915C23.2098 14.7349 23.2348 15.0616 23.4545 15.2793C23.7056 15.5282 23.9076 15.8115 24.055 16.1216C24.1838 16.3927 24.5021 16.5471 24.8213 16.4934L25.6151 16.3604L25.691 16.7344L24.8973 16.8675Z" fill="white" fill-opacity="0.87"/>
<path d="M22.3829 15.4911C21.8429 15.1532 21.1902 15.0266 20.5455 15.1347C19.9007 15.2428 19.3408 15.5728 18.969 16.0637C18.2013 17.0772 18.4839 18.4695 19.5988 19.1673C20.0229 19.4328 20.5075 19.5601 20.9872 19.5601C21.7685 19.5601 22.5373 19.2226 23.0128 18.5947C23.7804 17.5812 23.4978 16.1889 22.3829 15.4911ZM21.8645 17.876C21.5329 18.3138 20.8711 18.4248 20.3895 18.1234C19.9078 17.8219 19.7857 17.2203 20.1173 16.7825C20.1174 16.7824 20.1174 16.7824 20.1174 16.7824C20.278 16.5703 20.5199 16.4277 20.7985 16.381C20.8634 16.3702 20.9285 16.3648 20.9932 16.3648C21.2059 16.3648 21.4134 16.4231 21.5924 16.5351C22.0741 16.8366 22.1962 17.4381 21.8645 17.876Z" fill="white" fill-opacity="0.87"/>
</g>
<defs>
<clipPath id="clip0_401_75">
<rect width="26.4" height="24" fill="white" transform="translate(0.800049 0.00012207)"/>
</clipPath>
</defs>
</svg>
