<svg width="511" height="414" viewBox="0 0 511 414" fill="none" xmlns="http://www.w3.org/2000/svg">
<g clip-path="url(#clip0_401_43)">
<path d="M511 384.682H0V385.88H511V384.682Z" fill="#343D68"/>
<path d="M320.611 179.535C320.611 179.535 297.691 197.689 309.151 201.815C320.611 205.941 327.979 186.962 327.979 186.962L320.611 179.535Z" fill="#E9C1A1"/>
<path d="M321.43 172.934L316.518 181.186C316.518 181.186 324.704 181.186 326.341 193.563L332.89 185.311L321.43 172.934Z" fill="#CFCCE0"/>
<path d="M430.302 361.077L431.121 385.833L421.297 391.609L417.205 389.134L418.023 361.077H430.302Z" fill="#E9C1A1"/>
<path d="M372.182 354.476L373.819 380.882L350.899 390.784L352.536 376.756C352.536 376.756 359.085 366.028 357.448 354.476H372.182Z" fill="#E9C1A1"/>
<path d="M407.381 155.605C407.381 155.605 420.479 190.263 422.935 211.718C425.39 233.173 429.483 290.111 429.483 290.111L437.669 363.553L414.749 366.853L404.926 292.586L382.824 219.144L377.912 292.586L373.819 359.427L352.536 360.252L350.899 290.936L341.895 202.641L346.806 160.556L407.381 155.605Z" fill="#2F2E41"/>
<path d="M419.66 387.483C419.66 387.483 421.003 373.624 430.973 381.379L432.758 380.056L440.943 398.211C440.943 398.211 450.766 412.239 433.576 413.889C416.386 415.54 418.023 398.211 418.023 398.211L416.386 390.784L417.204 385.921L419.66 387.483Z" fill="#2F2E41"/>
<path d="M372.182 370.979C374.197 372.141 375.867 373.824 377.019 375.856C378.17 377.887 378.761 380.192 378.731 382.532C378.731 390.784 377.912 391.609 377.912 391.609L365.634 394.91C365.634 394.91 357.448 394.085 352.536 399.036C347.625 403.987 323.067 407.288 323.067 400.686C323.067 394.085 343.532 383.357 343.532 383.357C343.532 383.357 349.609 373.011 353.938 374.058C358.266 375.105 359.904 376.756 359.904 377.581C359.904 378.406 357.448 384.182 357.448 384.182C357.448 384.182 371.364 380.882 372.182 370.979Z" fill="#2F2E41"/>
<path d="M370.545 54.1062C381.847 54.1062 391.01 44.8699 391.01 33.4764C391.01 22.0829 381.847 12.8466 370.545 12.8466C359.243 12.8466 350.08 22.0829 350.08 33.4764C350.08 44.8699 359.243 54.1062 370.545 54.1062Z" fill="#E9C1A1"/>
<path d="M385.689 38.8401L394.693 59.4699L370.136 94.9531C370.136 94.9531 368.499 56.1691 363.587 49.5676C358.676 42.9661 385.689 38.8401 385.689 38.8401Z" fill="#E9C1A1"/>
<path d="M374.229 81.7501L378.322 71.0228L381.596 71.8477L385.689 68.5469L391.419 50.3929L399.605 56.1691L410.246 164.269L343.941 165.919L352.946 90.8271L361.132 69.3724L367.04 61.4978L370.954 73.4981L374.229 81.7501Z" fill="#CFCCE0"/>
<path d="M393.056 127.961L395.561 53.3156C395.561 53.3156 400.423 53.6936 402.061 56.1692C403.698 58.6447 430.711 63.5959 430.711 63.5959L425.8 140.339C425.8 140.339 446.264 201.403 438.897 204.704C431.53 208.004 418.432 207.179 418.432 207.179L393.056 127.961Z" fill="#575A89"/>
<path d="M353.355 118.471L362.039 68.1631L342.713 81.3374L347.625 117.646L343.532 142.402C343.532 142.402 327.979 210.892 332.89 213.368C337.802 215.844 343.532 213.368 343.532 213.368L353.355 144.052V118.471Z" fill="#575A89"/>
<path d="M348.443 79.6871L342.713 81.3375L340.257 114.345L336.164 143.227L316.518 178.71C316.518 178.71 326.341 172.108 330.434 191.088L352.07 153.115L348.443 79.6871Z" fill="#575A89"/>
<path d="M412.293 172.934C412.293 172.934 389.373 191.088 400.833 195.214C412.293 199.34 419.66 180.36 419.66 180.36L412.293 172.934Z" fill="#E9C1A1"/>
<path d="M426.209 182.011L418.842 191.088L409.019 173.759L413.111 166.332L426.209 182.011Z" fill="#CFCCE0"/>
<path d="M424.572 66.484L431.12 63.1833C431.12 63.1833 436.032 69.7848 436.85 75.5611C437.669 81.3375 441.762 88.7642 441.762 92.8901C441.762 97.0161 453.222 135.8 453.222 135.8L427.027 189.437C427.027 189.437 421.297 169.633 409.019 167.983L429.483 139.101L418.023 118.471L424.572 66.484Z" fill="#575A89"/>
<path d="M387.677 13.8207L391.536 12.2632C391.536 12.2632 383.467 3.30807 372.241 4.08681L375.398 0.582582C375.398 0.582582 367.68 -2.53223 360.664 5.64419C356.975 9.94234 352.708 14.9946 350.047 20.6859H345.914L347.639 24.5146L341.602 28.3432L347.799 27.6555C347.429 29.7521 347.373 31.8925 347.63 34.006C347.896 36.1201 348.967 38.0474 350.615 39.3812C350.615 39.3812 355.401 29.3948 355.401 27.8374V31.7309C355.401 31.7309 359.26 28.2267 359.26 25.8906L361.365 28.6161L362.418 24.3332L375.398 28.6161L373.293 25.1119L381.362 26.28L378.205 21.997C378.205 21.997 387.326 27.0586 387.677 31.3416C388.028 35.6244 390.698 39.6827 390.698 39.6827C390.698 39.6827 397.851 19.6609 387.677 13.8207Z" fill="#2F2E41"/>
<path d="M387.326 33.0638C388.592 33.0638 389.618 31.7707 389.618 30.1756C389.618 28.5805 388.592 27.2874 387.326 27.2874C386.06 27.2874 385.034 28.5805 385.034 30.1756C385.034 31.7707 386.06 33.0638 387.326 33.0638Z" fill="#E9C1A1"/>
<path d="M94.7216 170.076H24.0574V150.115H60.9429L94.7216 170.076Z" fill="#4F47C8"/>
<path d="M23.8633 167.336V225.655H253.328V167.336H23.8633ZM113.359 215.87H38.8115V207.651H113.359V215.87ZM238.38 200.605H38.8115V192.386H238.38V200.605ZM238.38 185.341H38.8115V177.121H238.38V185.341Z" fill="#343D68"/>
<path d="M94.7216 75.7494H24.0574V55.7879H60.9429L94.7216 75.7494Z" fill="#4F47C8"/>
<path d="M23.8633 74.1837V132.502H253.328V74.1837H23.8633ZM113.359 122.717H38.8115V114.498H113.359V122.717ZM156.456 107.453H38.8115V99.2332H156.456L156.456 107.453ZM238.38 92.188H38.8115V83.9686H238.38V92.188Z" fill="#343D68"/>
<path d="M94.7216 262.446H24.0574V242.485H60.9429L94.7216 262.446Z" fill="#4F47C8"/>
<path d="M23.8633 258.532V316.851H253.328V258.532H23.8633ZM156.456 307.066H38.8115V298.846H156.456V307.066ZM156.456 291.801H38.8115V283.582H156.456V291.801ZM238.38 276.537H38.8115V268.317H238.38V276.537Z" fill="#343D68"/>
<path d="M318.363 119.586H285.748V86.7084H307.88V87.4911H286.525V118.803H317.586V103.147H318.363V119.586Z" fill="#343D68"/>
<path d="M301.888 111.01C301.134 108.767 291.683 101.141 297.474 99.8593L302.224 106.243L324.059 84.2316L326.256 86.4455L301.888 111.01Z" fill="#4F47C8"/>
<path d="M318.363 212.739H285.748V179.861H307.88V180.644H286.525V211.956H317.586V196.3H318.363V212.739Z" fill="#343D68"/>
<path d="M301.888 204.163C301.134 201.92 291.683 194.294 297.474 193.012L302.224 199.396L324.059 177.384L326.256 179.598L301.888 204.163Z" fill="#4F47C8"/>
<path d="M318.363 305.5H285.748V272.623H307.88V273.406H286.525V304.717H317.586V289.061H318.363V305.5Z" fill="#343D68"/>
<path d="M301.888 296.925C301.134 294.681 291.683 287.055 297.474 285.774L302.224 292.157L324.059 270.146L326.256 272.36L301.888 296.925Z" fill="#4F47C8"/>
</g>
<defs>
<clipPath id="clip0_401_43">
<rect width="511" height="414" fill="white"/>
</clipPath>
</defs>
</svg>
